Uniblok.ufo
<glyph name="exclam" format="1">
  <advance width="735"/>
  <unicode hex="0021"/>
  <outline>
    <contour>
      <point x="262" y="0" type="line"/>
      <point x="717" y="0" type="line"/>
      <point x="717" y="700" type="line"/>
      <point x="262" y="700" type="line"/>
    </contour>
    <contour>
      <point x="52" y="245" type="line"/>
      <point x="192" y="245" type="line"/>
      <point x="192" y="315" type="line"/>
      <point x="227" y="315" type="line"/>
      <point x="227" y="700" type="line"/>
      <point x="17" y="700" type="line"/>
      <point x="17" y="315" type="line"/>
      <point x="52" y="315" type="line"/>
    </contour>
    <contour>
      <point x="17" y="0" type="line"/>
      <point x="227" y="0" type="line"/>
      <point x="227" y="210" type="line"/>
      <point x="17" y="210" type="line"/>
    </contour>
  </outline>
</glyph>
<glyph name="ampersand" format="1">
  <advance width="735"/>
  <unicode hex="0026"/>
  <outline>
    <contour>
      <point x="17" y="0" type="line"/>
      <point x="507" y="0" type="line"/>
      <point x="507" y="245" type="line"/>
      <point x="717" y="245" type="line"/>
      <point x="717" y="455" type="line"/>
      <point x="227" y="455" type="line"/>
      <point x="227" y="490" type="line"/>
      <point x="717" y="490" type="line"/>
      <point x="717" y="700" type="line"/>
      <point x="17" y="700" type="line"/>
    </contour>
    <contour>
      <point x="542" y="0" type="line"/>
      <point x="717" y="0" type="line"/>
      <point x="717" y="210" type="line"/>
      <point x="542" y="210" type="line"/>
    </contour>
    <contour>
      <point x="227" y="245" type="line"/>
      <point x="367" y="245" type="line"/>
      <point x="367" y="210" type="line"/>
      <point x="227" y="210" type="line"/>
    </contour>
  </outline>
</glyph>
<glyph name="quotesingle" format="1">
  <advance width="735"/>
  <unicode hex="0027"/>
  <outline>
    <contour>
      <point x="717" y="700" type="line"/>
      <point x="507" y="700" type="line"/>
      <point x="507" y="210" type="line"/>
      <point x="227" y="210" type="line"/>
      <point x="227" y="700" type="line"/>
      <point x="17" y="700" type="line"/>
      <point x="17" y="0" type="line"/>
      <point x="717" y="0" type="line"/>
    </contour>
    <contour>
      <point x="262" y="245" type="line"/>
      <point x="472" y="245" type="line"/>
      <point x="472" y="700" type="line"/>
      <point x="262" y="700" type="line"/>
    </contour>
  </outline>
</glyph>
<glyph name="slash" format="1">
  <advance width="735"/>
  <unicode hex="002F"/>
  <outline>
    <contour>
      <point x="717" y="245" type="line"/>
      <point x="507" y="245" type="line"/>
      <point x="507" y="490" type="line"/>
      <point x="262" y="490" type="line"/>
      <point x="262" y="700" type="line"/>
      <point x="717" y="700" type="line"/>
    </contour>
    <contour>
      <point x="472" y="0" type="line"/>
      <point x="17" y="0" type="line"/>
      <point x="17" y="455" type="line"/>
      <point x="227" y="455" type="line"/>
      <point x="227" y="210" type="line"/>
      <point x="472" y="210" type="line"/>
    </contour>
    <contour>
      <point x="472" y="245" type="line"/>
      <point x="262" y="245" type="line"/>
      <point x="262" y="455" type="line"/>
      <point x="472" y="455" type="line"/>
    </contour>
    <contour>
      <point x="227" y="490" type="line"/>
      <point x="17" y="490" type="line"/>
      <point x="17" y="700" type="line"/>
      <point x="227" y="700" type="line"/>
    </contour>
    <contour>
      <point x="717" y="0" type="line"/>
      <point x="507" y="0" type="line"/>
      <point x="507" y="210" type="line"/>
      <point x="717" y="210" type="line"/>
    </contour>
  </outline>
</glyph>
<glyph name="zero" format="1">
  <advance width="735"/>
  <unicode hex="0030"/>
  <outline>
    <contour>
      <point x="17" y="0" type="line"/>
      <point x="717" y="0" type="line"/>
      <point x="717" y="700" type="line"/>
      <point x="17" y="700" type="line"/>
    </contour>
    <contour>
      <point x="350" y="210" type="line"/>
      <point x="350" y="490" type="line"/>
      <point x="385" y="490" type="line"/>
      <point x="385" y="210" type="line"/>
    </contour>
  </outline>
</glyph>
<glyph name="five" format="1">
  <advance width="735"/>
  <unicode hex="0035"/>
  <outline>
    <contour>
      <point x="17" y="0" type="line"/>
      <point x="717" y="0" type="line"/>
      <point x="717" y="455" type="line"/>
      <point x="227" y="455" type="line"/>
      <point x="227" y="490" type="line"/>
      <point x="717" y="490" type="line"/>
      <point x="717" y="700" type="line"/>
      <point x="17" y="700" type="line"/>
      <point x="17" y="245" type="line"/>
      <point x="297" y="245" type="line"/>
      <point x="297" y="210" type="line"/>
      <point x="17" y="210" type="line"/>
    </contour>
  </outline>
</glyph>
<glyph name="eight" format="1">
  <advance width="735"/>
  <unicode hex="0038"/>
  <outline>
    <contour>
      <point x="17" y="0" type="line"/>
      <point x="717" y="0" type="line"/>
      <point x="717" y="350" type="line"/>
      <point x="682" y="350" type="line"/>
      <point x="682" y="385" type="line"/>
      <point x="717" y="385" type="line"/>
      <point x="717" y="700" type="line"/>
      <point x="17" y="700" type="line"/>
      <point x="17" y="385" type="line"/>
      <point x="52" y="385" type="line"/>
      <point x="52" y="350" type="line"/>
      <point x="17" y="350" type="line"/>
    </contour>
    <contour>
      <point x="227" y="420" type="line"/>
      <point x="227" y="560" type="line"/>
      <point x="262" y="560" type="line"/>
      <point x="262" y="420" type="line"/>
    </contour>
    <contour>
      <point x="227" y="140" type="line"/>
      <point x="227" y="280" type="line"/>
      <point x="262" y="280" type="line"/>
      <point x="262" y="140" type="line"/>
    </contour>
  </outline>
</glyph>
<glyph name="nine" format="1">
  <advance width="735"/>
  <unicode hex="0039"/>
  <outline>
    <contour>
      <point x="17" y="0" type="line"/>
      <point x="717" y="0" type="line"/>
      <point x="717" y="700" type="line"/>
      <point x="17" y="700" type="line"/>
      <point x="17" y="245" type="line"/>
      <point x="262" y="245" type="line"/>
      <point x="262" y="210" type="line"/>
      <point x="17" y="210" type="line"/>
    </contour>
    <contour>
      <point x="227" y="350" type="line"/>
      <point x="227" y="560" type="line"/>
      <point x="262" y="560" type="line"/>
      <point x="262" y="350" type="line"/>
    </contour>
  </outline>
</glyph>
<glyph name="semicolon" format="1">
  <advance width="735"/>
  <unicode hex="003B"/>
  <outline>
    <contour>
      <point x="262" y="700" type="line"/>
      <point x="262" y="455" type="line"/>
      <point x="17" y="455" type="line"/>
      <point x="17" y="245" type="line"/>
      <point x="262" y="245" type="line"/>
      <point x="262" y="0" type="line"/>
      <point x="717" y="0" type="line"/>
      <point x="717" y="700" type="line"/>
    </contour>
    <contour>
      <point x="17" y="490" type="line"/>
      <point x="227" y="490" type="line"/>
      <point x="227" y="700" type="line"/>
      <point x="17" y="700" type="line"/>
    </contour>
    <contour>
      <point x="17" y="70" type="line"/>
      <point x="87" y="70" type="line"/>
      <point x="87" y="0" type="line"/>
      <point x="227" y="0" type="line"/>
      <point x="227" y="210" type="line"/>
      <point x="17" y="210" type="line"/>
    </contour>
    <contour>
      <point x="17" y="0" type="line"/>
      <point x="52" y="0" type="line"/>
      <point x="52" y="35" type="line"/>
      <point x="17" y="35" type="line"/>
    </contour>
  </outline>
</glyph>
<glyph name="question" format="1">
  <advance width="734"/>
  <unicode hex="003F"/>
  <outline>
    <contour>
      <point x="17" y="245" type="line"/>
      <point x="716" y="245" type="line"/>
      <point x="716" y="700" type="line"/>
      <point x="17" y="700" type="line"/>
      <point x="17" y="385" type="line"/>
      <point x="227" y="385" type="line"/>
      <point x="227" y="525" type="line"/>
      <point x="262" y="525" type="line"/>
      <point x="262" y="350" type="line"/>
      <point x="17" y="350" type="line"/>
    </contour>
    <contour>
      <point x="17" y="0" type="line"/>
      <point x="716" y="0" type="line"/>
      <point x="716" y="210" type="line"/>
      <point x="17" y="210" type="line"/>
    </contour>
  </outline>
</glyph>
<glyph name="at" format="1">
  <advance width="735"/>
  <unicode hex="0040"/>
  <outline>
    <contour>
      <point x="717" y="70" type="line"/>
      <point x="717" y="700" type="line"/>
      <point x="17" y="700" type="line"/>
      <point x="17" y="0" type="line"/>
      <point x="717" y="0" type="line"/>
      <point x="717" y="35" type="line"/>
      <point x="52" y="35" type="line"/>
      <point x="52" y="665" type="line"/>
      <point x="682" y="665" type="line"/>
      <point x="682" y="105" type="line"/>
      <point x="647" y="105" type="line"/>
      <point x="647" y="630" type="line"/>
      <point x="87" y="630" type="line"/>
      <point x="87" y="490" type="line"/>
      <point x="262" y="490" type="line"/>
      <point x="262" y="455" type="line"/>
      <point x="87" y="455" type="line"/>
      <point x="87" y="70" type="line"/>
    </contour>
    <contour>
      <point x="227" y="140" type="line"/>
      <point x="227" y="350" type="line"/>
      <point x="262" y="350" type="line"/>
      <point x="262" y="140" type="line"/>
    </contour>
  </outline>
</glyph>
<glyph name="B" format="1">
  <advance width="735"/>
  <unicode hex="0042"/>
  <outline>
    <contour>
      <point x="17" y="0" type="line"/>
      <point x="717" y="0" type="line"/>
      <point x="717" y="350" type="line"/>
      <point x="647" y="350" type="line"/>
      <point x="647" y="385" type="line"/>
      <point x="717" y="385" type="line"/>
      <point x="717" y="700" type="line"/>
      <point x="17" y="700" type="line"/>
    </contour>
    <contour>
      <point x="227" y="385" type="line"/>
      <point x="227" y="560" type="line"/>
      <point x="262" y="560" type="line"/>
      <point x="262" y="385" type="line"/>
    </contour>
    <contour>
      <point x="227" y="140" type="line"/>
      <point x="227" y="315" type="line"/>
      <point x="262" y="315" type="line"/>
      <point x="262" y="140" type="line"/>
    </contour>
  </outline>
</glyph>
<glyph name="D" format="1">
  <advance width="735"/>
  <unicode hex="0044"/>
  <outline>
    <contour>
      <point x="17" y="0" type="line"/>
      <point x="682" y="0" type="line"/>
      <point x="682" y="140" type="line"/>
      <point x="717" y="140" type="line"/>
      <point x="717" y="560" type="line"/>
      <point x="682" y="560" type="line"/>
      <point x="682" y="700" type="line"/>
      <point x="17" y="700" type="line"/>
    </contour>
    <contour>
      <point x="227" y="140" type="line"/>
      <point x="227" y="560" type="line"/>
      <point x="262" y="560" type="line"/>
      <point x="262" y="140" type="line"/>
    </contour>
  </outline>
</glyph>
<glyph name="E" format="1">
  <advance width="735"/>
  <unicode hex="0045"/>
  <outline>
    <contour>
      <point x="17" y="0" type="line"/>
      <point x="717" y="0" type="line"/>
      <point x="717" y="210" type="line"/>
      <point x="507" y="210" type="line"/>
      <point x="507" y="245" type="line"/>
      <point x="717" y="245" type="line"/>
      <point x="717" y="455" type="line"/>
      <point x="507" y="455" type="line"/>
      <point x="507" y="490" type="line"/>
      <point x="717" y="490" type="line"/>
      <point x="717" y="700" type="line"/>
      <point x="17" y="700" type="line"/>
    </contour>
  </outline>
</glyph>
<glyph name="P" format="1">
  <advance width="735"/>
  <unicode hex="0050"/>
  <outline>
    <contour>
      <point x="17" y="0" type="line"/>
      <point x="472" y="0" type="line"/>
      <point x="472" y="245" type="line"/>
      <point x="717" y="245" type="line"/>
      <point x="717" y="700" type="line"/>
      <point x="17" y="700" type="line"/>
    </contour>
    <contour>
      <point x="472" y="350" type="line"/>
      <point x="472" y="560" type="line"/>
      <point x="507" y="560" type="line"/>
      <point x="507" y="350" type="line"/>
    </contour>
    <contour>
      <point x="507" y="0" type="line"/>
      <point x="717" y="0" type="line"/>
      <point x="717" y="210" type="line"/>
      <point x="507" y="210" type="line"/>
    </contour>
  </outline>
</glyph>
<glyph name="Q" format="1">
  <advance width="735"/>
  <unicode hex="0051"/>
  <outline>
    <contour>
      <point x="17" y="0" type="line"/>
      <point x="472" y="0" type="line"/>
      <point x="472" y="245" type="line"/>
      <point x="717" y="245" type="line"/>
      <point x="717" y="700" type="line"/>
      <point x="17" y="700" type="line"/>
    </contour>
    <contour>
      <point x="227" y="140" type="line"/>
      <point x="227" y="560" type="line"/>
      <point x="262" y="560" type="line"/>
      <point x="262" y="140" type="line"/>
    </contour>
    <contour>
      <point x="507" y="0" type="line"/>
      <point x="717" y="0" type="line"/>
      <point x="717" y="210" type="line"/>
      <point x="507" y="210" type="line"/>
    </contour>
  </outline>
</glyph>
<glyph name="R" format="1">
  <advance width="735"/>
  <unicode hex="0052"/>
  <outline>
    <contour>
      <point x="17" y="0" type="line"/>
      <point x="227" y="0" type="line"/>
      <point x="227" y="490" type="line"/>
      <point x="262" y="490" type="line"/>
      <point x="262" y="0" type="line"/>
      <point x="717" y="0" type="line"/>
      <point x="717" y="210" type="line"/>
      <point x="507" y="210" type="line"/>
      <point x="507" y="245" type="line"/>
      <point x="717" y="245" type="line"/>
      <point x="717" y="700" type="line"/>
      <point x="17" y="700" type="line"/>
    </contour>
  </outline>
</glyph>
<glyph name="X" format="1">
  <advance width="735"/>
  <unicode hex="0058"/>
  <outline>
    <contour>
      <point x="17" y="0" type="line"/>
      <point x="350" y="0" type="line"/>
      <point x="350" y="210" type="line"/>
      <point x="385" y="210" type="line"/>
      <point x="385" y="0" type="line"/>
      <point x="717" y="0" type="line"/>
      <point x="717" y="455" type="line"/>
      <point x="506" y="455" type="line"/>
      <point x="506" y="490" type="line"/>
      <point x="717" y="490" type="line"/>
      <point x="717" y="700" type="line"/>
      <point x="385" y="700" type="line"/>
      <point x="385" y="491" type="line"/>
      <point x="350" y="491" type="line"/>
      <point x="350" y="700" type="line"/>
      <point x="17" y="700" type="line"/>
      <point x="17" y="490" type="line"/>
      <point x="227" y="490" type="line"/>
      <point x="227" y="455" type="line"/>
      <point x="17" y="455" type="line"/>
    </contour>
  </outline>
</glyph>
<glyph name="bracketleft" format="1">
  <advance width="735"/>
  <unicode hex="005B"/>
  <outline>
    <contour>
      <point x="262" y="245" type="line"/>
      <point x="717" y="245" type="line"/>
      <point x="717" y="455" type="line"/>
      <point x="262" y="455" type="line"/>
    </contour>
    <contour>
      <point x="227" y="490" type="line"/>
      <point x="717" y="490" type="line"/>
      <point x="717" y="700" type="line"/>
      <point x="17" y="700" type="line"/>
      <point x="17" y="0" type="line"/>
      <point x="717" y="0" type="line"/>
      <point x="717" y="210" type="line"/>
      <point x="227" y="210" type="line"/>
    </contour>
  </outline>
</glyph>
<glyph name="underscore" format="1">
  <advance width="735"/>
  <unicode hex="005F"/>
  <outline>
    <contour>
      <point x="17" y="245" type="line"/>
      <point x="717" y="245" type="line"/>
      <point x="717" y="700" type="line"/>
      <point x="17" y="700" type="line"/>
    </contour>
    <contour>
      <point x="17" y="0" type="line"/>
      <point x="717" y="0" type="line"/>
      <point x="717" y="210" type="line"/>
      <point x="17" y="210" type="line"/>
    </contour>
  </outline>
</glyph>
<glyph name="h" format="1">
  <advance width="735"/>
  <unicode hex="0068"/>
  <outline>
    <contour>
      <point x="507" y="490" type="line"/>
      <point x="717" y="490" type="line"/>
      <point x="717" y="700" type="line"/>
      <point x="507" y="700" type="line"/>
    </contour>
    <contour>
      <point x="17" y="0" type="line"/>
      <point x="472" y="0" type="line"/>
      <point x="472" y="315" type="line"/>
      <point x="507" y="315" type="line"/>
      <point x="507" y="0" type="line"/>
      <point x="717" y="0" type="line"/>
      <point x="717" y="455" type="line"/>
      <point x="472" y="455" type="line"/>
      <point x="472" y="700" type="line"/>
      <point x="17" y="700" type="line"/>
    </contour>
  </outline>
</glyph>
<glyph name="i" format="1">
  <advance width="736"/>
  <unicode hex="0069"/>
  <outline>
    <contour>
      <point x="17" y="490" type="line"/>
      <point x="717" y="490" type="line"/>
      <point x="717" y="700" type="line"/>
      <point x="17" y="700" type="line"/>
    </contour>
    <contour>
      <point x="17" y="0" type="line"/>
      <point x="717" y="0" type="line"/>
      <point x="717" y="455" type="line"/>
      <point x="17" y="455" type="line"/>
    </contour>
  </outline>
</glyph>
<glyph name="j" format="1">
  <advance width="735"/>
  <unicode hex="006A"/>
  <outline>
    <contour>
      <point x="262" y="491" type="line"/>
      <point x="717" y="491" type="line"/>
      <point x="717" y="700" type="line"/>
      <point x="262" y="700" type="line"/>
    </contour>
    <contour>
      <point x="17" y="245" type="line"/>
      <point x="227" y="245" type="line"/>
      <point x="227" y="700" type="line"/>
      <point x="17" y="700" type="line"/>
    </contour>
    <contour>
      <point x="17" y="0" type="line"/>
      <point x="717" y="0" type="line"/>
      <point x="717" y="456" type="line"/>
      <point x="262" y="456" type="line"/>
      <point x="262" y="210" type="line"/>
      <point x="17" y="210" type="line"/>
    </contour>
  </outline>
</glyph>
<glyph name="k" format="1">
  <advance width="735"/>
  <unicode hex="006B"/>
  <outline>
    <contour>
      <point x="17" y="0" type="line"/>
      <point x="297" y="0" type="line"/>
      <point x="297" y="280" type="line"/>
      <point x="332" y="280" type="line"/>
      <point x="332" y="0" type="line"/>
      <point x="717" y="0" type="line"/>
      <point x="717" y="455" type="line"/>
      <point x="507" y="455" type="line"/>
      <point x="507" y="490" type="line"/>
      <point x="717" y="490" type="line"/>
      <point x="717" y="700" type="line"/>
      <point x="332" y="700" type="line"/>
      <point x="332" y="560" type="line"/>
      <point x="297" y="560" type="line"/>
      <point x="297" y="700" type="line"/>
      <point x="17" y="700" type="line"/>
    </contour>
  </outline>
</glyph>
<glyph name="n" format="1">
  <advance width="735"/>
  <unicode hex="006E"/>
  <outline>
    <contour>
      <point x="17" y="0" type="line"/>
      <point x="472" y="0" type="line"/>
      <point x="472" y="490" type="line"/>
      <point x="507" y="490" type="line"/>
      <point x="507" y="0" type="line"/>
      <point x="717" y="0" type="line"/>
      <point x="717" y="700" type="line"/>
      <point x="262" y="700" type="line"/>
      <point x="262" y="630" type="line"/>
      <point x="227" y="630" type="line"/>
      <point x="227" y="700" type="line"/>
      <point x="17" y="700" type="line"/>
    </contour>
  </outline>
</glyph>
<glyph name="o" format="1">
  <advance width="735"/>
  <unicode hex="006F"/>
  <outline>
    <contour>
      <point x="17" y="0" type="line"/>
      <point x="717" y="0" type="line"/>
      <point x="717" y="700" type="line"/>
      <point x="17" y="700" type="line"/>
    </contour>
    <contour>
      <point x="350" y="140" type="line"/>
      <point x="350" y="560" type="line"/>
      <point x="385" y="560" type="line"/>
      <point x="385" y="140" type="line"/>
    </contour>
  </outline>
</glyph>
<glyph name="s" format="1">
  <advance width="735"/>
  <unicode hex="0073"/>
  <outline>
    <contour>
      <point x="17" y="0" type="line"/>
      <point x="717" y="0" type="line"/>
      <point x="717" y="455" type="line"/>
      <point x="227" y="455" type="line"/>
      <point x="227" y="490" type="line"/>
      <point x="717" y="490" type="line"/>
      <point x="717" y="700" type="line"/>
      <point x="17" y="700" type="line"/>
      <point x="17" y="245" type="line"/>
      <point x="506" y="245" type="line"/>
      <point x="506" y="210" type="line"/>
      <point x="17" y="210" type="line"/>
    </contour>
  </outline>
</glyph>
<glyph name="t" format="1">
  <advance width="735"/>
  <unicode hex="0074"/>
  <outline>
    <contour>
      <point x="507" y="490" type="line"/>
      <point x="717" y="490" type="line"/>
      <point x="717" y="700" type="line"/>
      <point x="507" y="700" type="line"/>
    </contour>
    <contour>
      <point x="17" y="245" type="line"/>
      <point x="262" y="245" type="line"/>
      <point x="262" y="0" type="line"/>
      <point x="472" y="0" type="line"/>
      <point x="472" y="245" type="line"/>
      <point x="717" y="245" type="line"/>
      <point x="717" y="455" type="line"/>
      <point x="472" y="455" type="line"/>
      <point x="472" y="700" type="line"/>
      <point x="262" y="700" type="line"/>
      <point x="262" y="455" type="line"/>
      <point x="17" y="455" type="line"/>
    </contour>
    <contour>
      <point x="17" y="490" type="line"/>
      <point x="227" y="490" type="line"/>
      <point x="227" y="700" type="line"/>
      <point x="17" y="700" type="line"/>
    </contour>
    <contour>
      <point x="507" y="0" type="line"/>
      <point x="717" y="0" type="line"/>
      <point x="717" y="210" type="line"/>
      <point x="507" y="210" type="line"/>
    </contour>
    <contour>
      <point x="17" y="0" type="line"/>
      <point x="227" y="0" type="line"/>
      <point x="227" y="210" type="line"/>
      <point x="17" y="210" type="line"/>
    </contour>
  </outline>
</glyph>
<glyph name="u" format="1">
  <advance width="735"/>
  <unicode hex="0075"/>
  <outline>
    <contour>
      <point x="17" y="0" type="line"/>
      <point x="717" y="0" type="line"/>
      <point x="717" y="700" type="line"/>
      <point x="262" y="700" type="line"/>
      <point x="262" y="211" type="line"/>
      <point x="227" y="211" type="line"/>
      <point x="227" y="700" type="line"/>
      <point x="17" y="700" type="line"/>
    </contour>
  </outline>
</glyph>
<glyph name="x" format="1">
  <advance width="735"/>
  <unicode hex="0078"/>
  <outline>
    <contour>
      <point x="17" y="0" type="line"/>
      <point x="350" y="0" type="line"/>
      <point x="350" y="210" type="line"/>
      <point x="385" y="210" type="line"/>
      <point x="385" y="0" type="line"/>
      <point x="717" y="0" type="line"/>
      <point x="717" y="350" type="line"/>
      <point x="577" y="350" type="line"/>
      <point x="577" y="385" type="line"/>
      <point x="717" y="385" type="line"/>
      <point x="717" y="700" type="line"/>
      <point x="385" y="700" type="line"/>
      <point x="385" y="560" type="line"/>
      <point x="350" y="560" type="line"/>
      <point x="350" y="700" type="line"/>
      <point x="17" y="700" type="line"/>
      <point x="17" y="385" type="line"/>
      <point x="157" y="385" type="line"/>
      <point x="157" y="350" type="line"/>
      <point x="17" y="350" type="line"/>
    </contour>
  </outline>
</glyph>
<glyph name="y" format="1">
  <advance width="735"/>
  <unicode hex="0079"/>
  <outline>
    <contour>
      <point x="17" y="0" type="line"/>
      <point x="717" y="0" type="line"/>
      <point x="717" y="700" type="line"/>
      <point x="262" y="700" type="line"/>
      <point x="262" y="350" type="line"/>
      <point x="227" y="350" type="line"/>
      <point x="227" y="700" type="line"/>
      <point x="17" y="700" type="line"/>
      <point x="17" y="245" type="line"/>
      <point x="262" y="245" type="line"/>
      <point x="262" y="210" type="line"/>
      <point x="17" y="210" type="line"/>
    </contour>
  </outline>
</glyph>
<glyph name="bar" format="1">
  <advance width="735"/>
  <unicode hex="007C"/>
  <outline>
    <contour>
      <point x="0" y="735" type="line"/>
      <point x="0" y="-35" type="line"/>
      <point x="735" y="-35" type="line"/>
      <point x="735" y="735" type="line"/>
    </contour>
    <contour>
      <point x="52" y="524"/>
      <point x="193" y="665"/>
      <point x="367" y="665" type="curve" smooth="yes"/>
      <point x="541" y="665"/>
      <point x="682" y="524"/>
      <point x="682" y="350" type="curve" smooth="yes"/>
      <point x="682" y="176"/>
      <point x="541" y="35"/>
      <point x="367" y="35" type="curve" smooth="yes"/>
      <point x="193" y="35"/>
      <point x="52" y="176"/>
      <point x="52" y="350" type="curve"/>
    </contour>
    <contour>
      <point x="192" y="385" type="line"/>
      <point x="332" y="385" type="line"/>
      <point x="332" y="525" type="line"/>
      <point x="192" y="525" type="line"/>
    </contour>
    <contour>
      <point x="402" y="385" type="line"/>
      <point x="542" y="385" type="line"/>
      <point x="542" y="525" type="line"/>
      <point x="402" y="525" type="line"/>
    </contour>
    <contour>
      <point x="192" y="175" type="line"/>
      <point x="332" y="175" type="line"/>
      <point x="332" y="315" type="line"/>
      <point x="192" y="315" type="line"/>
    </contour>
    <contour>
      <point x="402" y="175" type="line"/>
      <point x="542" y="175" type="line"/>
      <point x="542" y="315" type="line"/>
      <point x="402" y="315" type="line"/>
    </contour>
  </outline>
</glyph>
<glyph name="AE" format="1">
  <advance width="735"/>
  <unicode hex="00C6"/>
  <outline>
    <contour>
      <point x="227" y="280" type="line"/>
      <point x="227" y="560" type="line"/>
      <point x="262" y="560" type="line"/>
      <point x="262" y="280" type="line"/>
    </contour>
    <contour>
      <point x="717" y="0" type="line"/>
      <point x="717" y="210" type="line"/>
      <point x="507" y="210" type="line"/>
      <point x="507" y="245" type="line"/>
      <point x="717" y="245" type="line"/>
      <point x="717" y="455" type="line"/>
      <point x="507" y="455" type="line"/>
      <point x="507" y="490" type="line"/>
      <point x="717" y="490" type="line"/>
      <point x="717" y="700" type="line"/>
      <point x="17" y="700" type="line"/>
      <point x="17" y="0" type="line"/>
      <point x="227" y="0" type="line"/>
      <point x="227" y="209" type="line"/>
      <point x="262" y="209" type="line"/>
      <point x="262" y="0" type="line"/>
    </contour>
  </outline>
</glyph>
<glyph name="Eth" format="1">
  <advance width="735"/>
  <unicode hex="00D0"/>
  <outline>
    <contour>
      <point x="17" y="315" type="line"/>
      <point x="52" y="315" type="line"/>
      <point x="52" y="0" type="line"/>
      <point x="682" y="0" type="line"/>
      <point x="682" y="140" type="line"/>
      <point x="717" y="140" type="line"/>
      <point x="717" y="560" type="line"/>
      <point x="682" y="560" type="line"/>
      <point x="682" y="700" type="line"/>
      <point x="52" y="700" type="line"/>
      <point x="52" y="385" type="line"/>
      <point x="17" y="385" type="line"/>
    </contour>
    <contour>
      <point x="227" y="140" type="line"/>
      <point x="227" y="560" type="line"/>
      <point x="262" y="560" type="line"/>
      <point x="262" y="140" type="line"/>
    </contour>
  </outline>
</glyph>
<glyph name="Thorn" format="1">
  <advance width="735"/>
  <unicode hex="00DE"/>
  <outline>
    <contour>
      <point x="17" y="0" type="line"/>
      <point x="472" y="0" type="line"/>
      <point x="472" y="210" type="line"/>
      <point x="717" y="210" type="line"/>
      <point x="717" y="490" type="line"/>
      <point x="472" y="490" type="line"/>
      <point x="472" y="700" type="line"/>
      <point x="17" y="700" type="line"/>
    </contour>
    <contour>
      <point x="472" y="280" type="line"/>
      <point x="472" y="420" type="line"/>
      <point x="507" y="420" type="line"/>
      <point x="507" y="280" type="line"/>
    </contour>
    <contour>
      <point x="507" y="0" type="line"/>
      <point x="717" y="0" type="line"/>
      <point x="717" y="175" type="line"/>
      <point x="507" y="175" type="line"/>
    </contour>
    <contour>
      <point x="507" y="525" type="line"/>
      <point x="717" y="525" type="line"/>
      <point x="717" y="700" type="line"/>
      <point x="507" y="700" type="line"/>
    </contour>
  </outline>
</glyph>
<glyph name="germandbls" format="1">
  <advance width="735"/>
  <unicode hex="00DF"/>
  <outline>
    <contour>
      <point x="17" y="280" type="line"/>
      <point x="437" y="280" type="line"/>
      <point x="437" y="560" type="line"/>
      <point x="192" y="560" type="line"/>
      <point x="192" y="595" type="line"/>
      <point x="437" y="595" type="line"/>
      <point x="437" y="700" type="line"/>
      <point x="17" y="700" type="line"/>
      <point x="17" y="420" type="line"/>
      <point x="262" y="420" type="line"/>
      <point x="262" y="385" type="line"/>
      <point x="17" y="385" type="line"/>
    </contour>
    <contour>
      <point x="297" y="0" type="line"/>
      <point x="717" y="0" type="line"/>
      <point x="717" y="280" type="line"/>
      <point x="472" y="280" type="line"/>
      <point x="472" y="315" type="line"/>
      <point x="717" y="315" type="line"/>
      <point x="717" y="420" type="line"/>
      <point x="297" y="420" type="line"/>
      <point x="297" y="140" type="line"/>
      <point x="542" y="140" type="line"/>
      <point x="542" y="105" type="line"/>
      <point x="297" y="105" type="line"/>
    </contour>
    <contour>
      <point x="17" y="0" type="line"/>
      <point x="262" y="0" type="line"/>
      <point x="262" y="245" type="line"/>
      <point x="17" y="245" type="line"/>
    </contour>
    <contour>
      <point x="472" y="455" type="line"/>
      <point x="717" y="455" type="line"/>
      <point x="717" y="700" type="line"/>
      <point x="472" y="700" type="line"/>
    </contour>
  </outline>
</glyph>
<glyph name="ae" format="1">
  <advance width="735"/>
  <unicode hex="00E6"/>
  <outline>
    <contour>
      <point x="227" y="140" type="line"/>
      <point x="227" y="350" type="line"/>
      <point x="262" y="350" type="line"/>
      <point x="262" y="140" type="line"/>
    </contour>
    <contour>
      <point x="717" y="0" type="line"/>
      <point x="717" y="210" type="line"/>
      <point x="472" y="210" type="line"/>
      <point x="472" y="245" type="line"/>
      <point x="717" y="245" type="line"/>
      <point x="717" y="700" type="line"/>
      <point x="17" y="700" type="line"/>
      <point x="17" y="490" type="line"/>
      <point x="262" y="490" type="line"/>
      <point x="262" y="455" type="line"/>
      <point x="17" y="455" type="line"/>
      <point x="17" y="0" type="line"/>
    </contour>
    <contour>
      <point x="472" y="350" type="line"/>
      <point x="472" y="560" type="line"/>
      <point x="507" y="560" type="line"/>
      <point x="507" y="350" type="line"/>
    </contour>
  </outline>
</glyph>
<glyph name="eth" format="1">
  <advance width="735"/>
  <unicode hex="00F0"/>
  <outline>
    <contour>
      <point x="17" y="385" type="line"/>
      <point x="157" y="385" type="line"/>
      <point x="157" y="350" type="line"/>
      <point x="17" y="350" type="line"/>
      <point x="17" y="0" type="line"/>
      <point x="682" y="0" type="line"/>
      <point x="682" y="140" type="line"/>
      <point x="717" y="140" type="line"/>
      <point x="717" y="560" type="line"/>
      <point x="682" y="560" type="line"/>
      <point x="682" y="700" type="line"/>
      <point x="17" y="700" type="line"/>
    </contour>
    <contour>
      <point x="227" y="140" type="line"/>
      <point x="227" y="560" type="line"/>
      <point x="262" y="560" type="line"/>
      <point x="262" y="140" type="line"/>
    </contour>
  </outline>
</glyph>
<glyph name="thorn" format="1">
  <advance width="735"/>
  <unicode hex="00FE"/>
  <outline>
    <contour>
      <point x="17" y="0" type="line"/>
      <point x="472" y="0" type="line"/>
      <point x="472" y="245" type="line"/>
      <point x="717" y="245" type="line"/>
      <point x="717" y="455" type="line"/>
      <point x="472" y="455" type="line"/>
      <point x="472" y="700" type="line"/>
      <point x="17" y="700" type="line"/>
    </contour>
    <contour>
      <point x="472" y="315" type="line"/>
      <point x="472" y="385" type="line"/>
      <point x="507" y="385" type="line"/>
      <point x="507" y="315" type="line"/>
    </contour>
    <contour>
      <point x="507" y="0" type="line"/>
      <point x="717" y="0" type="line"/>
      <point x="717" y="210" type="line"/>
      <point x="507" y="210" type="line"/>
    </contour>
    <contour>
      <point x="507" y="490" type="line"/>
      <point x="717" y="490" type="line"/>
      <point x="717" y="700" type="line"/>
      <point x="507" y="700" type="line"/>
    </contour>
  </outline>
</glyph>
<glyph name="oe" format="1">
  <advance width="735"/>
  <unicode hex="0153"/>
  <outline>
    <contour>
      <point x="227" y="209" type="line"/>
      <point x="227" y="559" type="line"/>
      <point x="262" y="559" type="line"/>
      <point x="262" y="209" type="line"/>
    </contour>
    <contour>
      <point x="717" y="0" type="line"/>
      <point x="717" y="210" type="line"/>
      <point x="472" y="210" type="line"/>
      <point x="472" y="245" type="line"/>
      <point x="717" y="245" type="line"/>
      <point x="717" y="700" type="line"/>
      <point x="17" y="700" type="line"/>
      <point x="17" y="0" type="line"/>
    </contour>
    <contour>
      <point x="472" y="350" type="line"/>
      <point x="472" y="560" type="line"/>
      <point x="507" y="560" type="line"/>
      <point x="507" y="350" type="line"/>
    </contour>
  </outline>
</glyph>
<glyph name="quoteleft" format="1">
  <advance width="735"/>
  <unicode hex="2018"/>
  <outline>
    <contour>
      <point x="717" y="0" type="line"/>
      <point x="717" y="455" type="line"/>
      <point x="472" y="455" type="line"/>
      <point x="472" y="700" type="line"/>
      <point x="17" y="700" type="line"/>
      <point x="17" y="0" type="line"/>
    </contour>
    <contour>
      <point x="717" y="630" type="line"/>
      <point x="647" y="630" type="line"/>
      <point x="647" y="700" type="line"/>
      <point x="507" y="700" type="line"/>
      <point x="507" y="490" type="line"/>
      <point x="717" y="490" type="line"/>
    </contour>
    <contour>
      <point x="682" y="665" type="line"/>
      <point x="717" y="665" type="line"/>
      <point x="717" y="700" type="line"/>
      <point x="682" y="700" type="line"/>
    </contour>
  </outline>
</glyph>
<glyph name="quotesinglbase" format="1">
  <advance width="735"/>
  <unicode hex="201A"/>
  <outline>
    <contour>
      <point x="262" y="0" type="line"/>
      <point x="717" y="0" type="line"/>
      <point x="717" y="700" type="line"/>
      <point x="17" y="700" type="line"/>
      <point x="17" y="245" type="line"/>
      <point x="262" y="245" type="line"/>
    </contour>
    <contour>
      <point x="17" y="70" type="line"/>
      <point x="87" y="70" type="line"/>
      <point x="87" y="0" type="line"/>
      <point x="227" y="0" type="line"/>
      <point x="227" y="210" type="line"/>
      <point x="17" y="210" type="line"/>
    </contour>
    <contour>
      <point x="17" y="0" type="line"/>
      <point x="52" y="0" type="line"/>
      <point x="52" y="35" type="line"/>
      <point x="17" y="35" type="line"/>
    </contour>
  </outline>
</glyph>
<glyph name="quotedblleft" format="1">
  <advance width="735"/>
  <unicode hex="201C"/>
  <outline>
    <contour>
      <point x="717" y="0" type="line"/>
      <point x="717" y="455" type="line"/>
      <point x="227" y="455" type="line"/>
      <point x="227" y="700" type="line"/>
      <point x="17" y="700" type="line"/>
      <point x="17" y="0" type="line"/>
    </contour>
    <contour>
      <point x="717" y="630" type="line"/>
      <point x="647" y="630" type="line"/>
      <point x="647" y="700" type="line"/>
      <point x="507" y="700" type="line"/>
      <point x="507" y="490" type="line"/>
      <point x="717" y="490" type="line"/>
    </contour>
    <contour>
      <point x="472" y="630" type="line"/>
      <point x="402" y="630" type="line"/>
      <point x="402" y="700" type="line"/>
      <point x="262" y="700" type="line"/>
      <point x="262" y="490" type="line"/>
      <point x="472" y="490" type="line"/>
    </contour>
    <contour>
      <point x="437" y="665" type="line"/>
      <point x="472" y="665" type="line"/>
      <point x="472" y="700" type="line"/>
      <point x="437" y="700" type="line"/>
    </contour>
    <contour>
      <point x="682" y="665" type="line"/>
      <point x="717" y="665" type="line"/>
      <point x="717" y="700" type="line"/>
      <point x="682" y="700" type="line"/>
    </contour>
  </outline>
</glyph>
<glyph name="quotedblright" format="1">
  <advance width="735"/>
  <unicode hex="201D"/>
  <outline>
    <contour>
      <point x="717" y="0" type="line"/>
      <point x="717" y="700" type="line"/>
      <point x="507" y="700" type="line"/>
      <point x="507" y="455" type="line"/>
      <point x="17" y="455" type="line"/>
      <point x="17" y="0" type="line"/>
    </contour>
    <contour>
      <point x="17" y="560" type="line"/>
      <point x="87" y="560" type="line"/>
      <point x="87" y="490" type="line"/>
      <point x="227" y="490" type="line"/>
      <point x="227" y="700" type="line"/>
      <point x="17" y="700" type="line"/>
    </contour>
    <contour>
      <point x="262" y="560" type="line"/>
      <point x="332" y="560" type="line"/>
      <point x="332" y="490" type="line"/>
      <point x="472" y="490" type="line"/>
      <point x="472" y="700" type="line"/>
      <point x="262" y="700" type="line"/>
    </contour>
    <contour>
      <point x="17" y="490" type="line"/>
      <point x="52" y="490" type="line"/>
      <point x="52" y="525" type="line"/>
      <point x="17" y="525" type="line"/>
    </contour>
    <contour>
      <point x="262" y="490" type="line"/>
      <point x="297" y="490" type="line"/>
      <point x="297" y="525" type="line"/>
      <point x="262" y="525" type="line"/>
    </contour>
  </outline>
</glyph>
<glyph name="quotedblbase" format="1">
  <advance width="735"/>
  <unicode hex="201E"/>
  <outline>
    <contour>
      <point x="17" y="700" type="line"/>
      <point x="17" y="245" type="line"/>
      <point x="507" y="245" type="line"/>
      <point x="507" y="0" type="line"/>
      <point x="717" y="0" type="line"/>
      <point x="717" y="700" type="line"/>
    </contour>
    <contour>
      <point x="17" y="70" type="line"/>
      <point x="87" y="70" type="line"/>
      <point x="87" y="0" type="line"/>
      <point x="227" y="0" type="line"/>
      <point x="227" y="210" type="line"/>
      <point x="17" y="210" type="line"/>
    </contour>
    <contour>
      <point x="262" y="70" type="line"/>
      <point x="332" y="70" type="line"/>
      <point x="332" y="0" type="line"/>
      <point x="472" y="0" type="line"/>
      <point x="472" y="210" type="line"/>
      <point x="262" y="210" type="line"/>
    </contour>
    <contour>
      <point x="17" y="0" type="line"/>
      <point x="52" y="0" type="line"/>
      <point x="52" y="35" type="line"/>
      <point x="17" y="35" type="line"/>
    </contour>
    <contour>
      <point x="262" y="0" type="line"/>
      <point x="297" y="0" type="line"/>
      <point x="297" y="35" type="line"/>
      <point x="262" y="35" type="line"/>
    </contour>
  </outline>
</glyph>
